<svg width="53" height="54" viewBox="0 0 53 54" fill="none" xmlns="http://www.w3.org/2000/svg">
<path d="M46.3283 10.604C46.2866 10.334 46.0219 10.1845 45.803 10.1681C44.1894 10.0598 42.5757 9.95233 40.962 9.84575C40.962 9.84575 37.7516 6.99873 37.3992 6.68361C37.0466 6.36867 36.358 6.46446 36.0908 6.53474C36.0514 6.54509 35.3893 6.72762 34.2942 7.03035C33.2217 4.27376 31.3291 1.74057 27.9994 1.74057C27.9074 1.74057 27.8128 1.7439 27.7182 1.74871C26.7713 0.630058 25.5982 0.144058 24.585 0.144058C16.8286 0.144058 13.1229 8.80533 11.9611 13.2067C8.94711 14.0409 6.80599 14.634 6.5325 14.7107C4.85017 15.1821 4.79696 15.2295 4.57606 16.6455C4.40981 17.7175 0.00791168 48.1256 0.00791168 48.1256L34.3084 53.8663L52.8936 50.2749C52.8936 50.2749 46.3692 10.874 46.3283 10.604ZM32.3984 7.55408L29.496 8.3565C29.497 8.17378 29.4981 7.99403 29.4981 7.79745C29.4981 6.08424 29.2318 4.70484 28.8047 3.61134C30.5204 3.80367 31.663 5.54739 32.3984 7.55408ZM26.6764 3.95106C27.1534 5.01867 27.4636 6.55083 27.4636 8.61836C27.4636 8.72414 27.4625 8.82086 27.4615 8.91869C25.574 9.44094 23.5229 10.0079 21.4673 10.5768C22.6215 6.5978 24.785 4.67599 26.6764 3.95106ZM24.372 2.00243C24.7067 2.00243 25.044 2.10396 25.3668 2.30239C22.8809 3.34726 20.2164 5.97883 19.0912 11.234L14.3531 12.5448C15.6711 8.53643 18.8008 2.00243 24.372 2.00243Z" fill="#95BF46"/>
</svg>
